<?xml version="1.0" standalone="no"?>
<!DOCTYPE svg PUBLIC "-//W3C//DTD SVG 20010904//EN"
 "http://www.w3.org/TR/2001/REC-SVG-20010904/DTD/svg10.dtd">
<svg version="1.0" xmlns="http://www.w3.org/2000/svg"
 width="500.000000pt" height="500.000000pt" viewBox="0 0 500.000000 500.000000"
 preserveAspectRatio="xMidYMid meet">

<g transform="translate(0.000000,500.000000) scale(0.100000,-0.100000)"
fill="#000000" stroke="none">
<path d="M2345 3758 c-301 -33 -611 -202 -808 -439 -130 -157 -209 -312 -265
-519 -23 -86 -25 -114 -26 -285 0 -182 1 -195 31 -306 49 -182 133 -353 237
-480 l49 -61 -17 -72 c-19 -79 -13 -134 24 -207 86 -167 313 -205 457 -76 64
58 88 117 88 217 0 76 -3 91 -30 139 -67 121 -226 182 -350 135 -22 -8 -47
-17 -55 -20 -34 -10 -186 243 -233 386 -47 142 -66 327 -48 463 61 458 375
821 817 944 92 26 113 28 284 28 173 0 192 -2 285 -28 113 -32 265 -104 358
-171 85 -60 226 -209 283 -296 388 -601 119 -1390 -560 -1644 -136 -51 -213
-42 -263 33 -21 31 -23 46 -23 158 0 90 3 125 13 127 153 44 226 80 306 152
105 94 172 224 191 367 15 110 8 616 -9 669 -19 59 -73 130 -121 160 -43 26
-269 98 -308 98 -35 0 -43 -23 -40 -120 4 -112 12 -122 85 -101 109 32 159 24
212 -33 19 -20 25 -41 32 -108 10 -107 10 -441 0 -538 -21 -197 -171 -355
-372 -391 -238 -42 -476 135 -510 382 -6 40 -9 190 -7 334 3 241 5 263 24 295
11 19 36 45 55 58 38 26 86 27 172 2 73 -22 81 -12 85 100 4 137 1 139 -180
86 -177 -51 -227 -87 -280 -202 -23 -48 -23 -56 -23 -389 0 -330 1 -342 24
-405 35 -98 78 -168 151 -240 79 -79 138 -115 250 -151 l85 -27 5 -134 c5
-108 10 -142 28 -181 33 -75 75 -120 139 -152 116 -59 279 -35 483 72 358 188
581 485 666 883 27 129 24 373 -6 505 -35 155 -106 322 -192 448 -23 34 -80
102 -127 150 -287 297 -657 431 -1066 385z m-439 -2116 c47 -25 73 -100 54
-156 -6 -19 -27 -49 -46 -66 -66 -57 -177 -32 -211 47 -54 131 76 243 203 175z"/>
<path d="M2473 2813 l-63 -4 0 -104 0 -104 -107 -3 -108 -3 0 -85 0 -85 107
-3 107 -3 3 -107 3 -107 85 0 85 0 3 108 3 107 110 0 110 0 -3 88 -3 87 -107
3 -108 3 0 103 c0 106 -5 120 -43 114 -7 -1 -40 -3 -74 -5z"/>
</g>
</svg>
